External Loads File
version=1
nRows=70
nColumns=13
Range=5.000000e-03-10 seconds
endheader
time 	forceRightX 	forceRightY 	forceRightZ 	pointRightX 	pointRightY 	pointRightZ 	forceLeftX 	forceLeftY 	forceLeftZ 	pointLeftX 	pointLeftY 	pointLeftZ 		
7.505000 76.316411 86.858591 -0.000000 0.110535 0.347754 -0.165723 -78.825334 119.054887 -0.000000 0.417959 0.274488 -0.415415
7.510000 77.873012 83.867413 -0.000000 0.112367 0.357035 -0.165993 -76.656302 125.626312 -0.000000 0.415944 0.265461 -0.415411
7.515000 79.345292 80.505596 -0.000000 0.114600 0.366552 -0.166158 -74.532710 131.934355 -0.000000 0.413665 0.256382 -0.415325
7.520000 80.875646 76.811056 -0.000000 0.117148 0.376255 -0.166477 -72.490772 138.134386 -0.000000 0.411021 0.247148 -0.415179
7.525000 82.446029 72.957617 -0.000000 0.120114 0.385742 -0.166688 -70.766400 144.275833 -0.000000 0.407974 0.238039 -0.415045
7.530000 84.156863 68.928940 -0.000000 0.123422 0.395281 -0.166906 -69.194658 150.611267 -0.000000 0.404588 0.229021 -0.414803
7.535000 85.935733 64.814590 -0.000000 0.127163 0.404815 -0.167147 -67.623113 157.325478 -0.000000 0.400693 0.220203 -0.414641
7.540000 87.610226 60.785692 -0.000000 0.131699 0.413979 -0.166631 -65.844029 164.509490 -0.000000 0.396311 0.211637 -0.414470
7.545000 88.914603 57.147217 -0.000000 0.136039 0.422826 -0.167276 -63.773164 172.050039 -0.000000 0.391506 0.203327 -0.414357
7.550000 89.719245 54.017684 -0.000000 0.140990 0.431168 -0.167225 -61.026178 179.834705 -0.000000 0.386186 0.195570 -0.414247
7.555000 89.892206 51.515760 -0.000000 0.146239 0.438956 -0.167667 -57.475146 187.622400 -0.000000 0.380462 0.188223 -0.414145
7.560000 89.369595 49.638934 -0.000000 0.151815 0.446155 -0.167681 -53.143877 195.161697 -0.000000 0.374381 0.181399 -0.414103
7.565000 88.160592 48.214175 -0.000000 0.157834 0.452804 -0.167706 -48.088817 202.257121 -0.000000 0.367964 0.175169 -0.414009
7.570000 86.237894 47.078784 -0.000000 0.164106 0.458518 -0.167880 -42.735626 208.725689 -0.000000 0.361277 0.169479 -0.413946
7.575000 83.688733 45.821315 -0.000000 0.170541 0.463850 -0.167955 -37.196583 214.582200 -0.000000 0.354367 0.164253 -0.413907
7.580000 80.629334 43.962570 -0.000000 0.177733 0.468694 -0.167904 -31.495010 219.931470 -0.000000 0.347271 0.159519 -0.413757
7.585000 77.060127 41.245217 -0.000000 0.184751 0.473390 -0.168050 -26.153870 224.850657 -0.000000 0.339980 0.155033 -0.413598
7.590000 73.079575 37.286375 -0.000000 0.192295 0.477748 -0.168064 -21.068385 229.501112 -0.000000 0.332517 0.150954 -0.413488
7.595000 68.693121 31.965914 -0.000000 0.199866 0.481666 -0.168356 -16.424621 233.911555 -0.000000 0.324775 0.147071 -0.413320
7.600000 63.939713 25.158276 -0.000000 0.207883 0.485473 -0.168512 -11.789873 238.018420 -0.000000 0.316736 0.143483 -0.413225
7.605000 58.714936 17.081899 -0.000000 0.216122 0.488899 -0.168669 -7.198611 241.607179 -0.000000 0.308400 0.140392 -0.413077
7.610000 52.914988 8.006875 -0.000000 0.224884 0.491996 -0.169028 -2.111949 244.455542 -0.000000 0.299660 0.137588 -0.413018
7.615000 46.410717 -1.485963 -0.000000 0.233868 0.494563 -0.169226 3.249706 246.369995 -0.000000 0.290671 0.135400 -0.412969
7.620000 39.213377 -10.911865 -0.000000 0.243103 0.496585 -0.169425 9.087375 247.257146 -0.000000 0.281359 0.133651 -0.412901
7.625000 31.458240 -19.829720 -0.000000 0.252643 0.497928 -0.169689 15.355555 247.090849 -0.000000 0.271824 0.132589 -0.412878
7.630000 23.388898 -27.915802 -0.000000 0.262135 0.498704 -0.169928 21.701399 245.908760 -0.000000 0.262186 0.132158 -0.412827
7.635000 15.208326 -35.027404 -0.000000 0.271853 0.498585 -0.169789 28.194437 243.749800 -0.000000 0.252498 0.132298 -0.412734
7.640000 7.076357 -41.037515 -0.000000 0.281669 0.497985 -0.169873 34.705093 240.667279 -0.000000 0.242785 0.133131 -0.412662
7.645000 -0.854965 -45.808512 -0.000000 0.291312 0.496814 -0.169985 40.993607 236.712095 -0.000000 0.233111 0.134465 -0.412660
7.650000 -8.466271 -49.169900 -0.000000 0.300846 0.494831 -0.169885 47.093190 231.838348 -0.000000 0.223551 0.136470 -0.412603
7.655000 -15.583966 -50.907305 -0.000000 0.310212 0.492345 -0.169979 52.908489 225.947597 -0.000000 0.214054 0.139051 -0.412577
7.660000 -21.989334 -50.832753 -0.000000 0.319352 0.489411 -0.170004 58.227395 218.964430 -0.000000 0.204642 0.142248 -0.412440
7.665000 -27.412847 -48.898762 -0.000000 0.328111 0.485826 -0.170009 62.517508 211.015052 -0.000000 0.195763 0.145929 -0.412386
7.670000 -31.777839 -45.161106 -0.000000 0.336582 0.481807 -0.169976 65.760787 202.280831 -0.000000 0.187125 0.149947 -0.412368
7.675000 -35.046184 -39.848794 -0.000000 0.344612 0.477382 -0.169948 67.705921 193.214896 -0.000000 0.178933 0.154430 -0.412337
7.680000 -37.323091 -33.244658 -0.000000 0.352371 0.472598 -0.170069 68.419299 184.321409 -0.000000 0.171223 0.159140 -0.412344
7.685000 -38.761704 -25.672439 -0.000000 0.359756 0.467488 -0.170061 68.039460 176.116559 -0.000000 0.164049 0.164168 -0.412268
7.690000 -39.549375 -17.454459 -0.000000 0.366697 0.462061 -0.170083 66.878455 168.977196 -0.000000 0.157307 0.169441 -0.412264
7.695000 -39.856179 -8.932764 -0.000000 0.373244 0.456487 -0.170049 65.175524 163.132268 -0.000000 0.151134 0.174833 -0.412178
7.700000 -39.848003 -0.389469 -0.000000 0.379307 0.450800 -0.170030 63.247736 158.542636 -0.000000 0.145449 0.180428 -0.412126
7.705000 -39.657363 7.953610 -0.000000 0.384784 0.444778 -0.169775 61.320515 154.982492 -0.000000 0.140201 0.186132 -0.412004
7.710000 -39.375787 15.938156 -0.000000 0.390097 0.438727 -0.169854 59.510032 152.128860 -0.000000 0.135476 0.191951 -0.411955
7.715000 -39.064566 23.410354 -0.000000 0.394851 0.432629 -0.169715 57.726442 149.703337 -0.000000 0.131170 0.197815 -0.411852
7.720000 -38.722008 30.273072 -0.000000 0.399165 0.426485 -0.169643 56.006819 147.412958 -0.000000 0.127384 0.203796 -0.411766
7.725000 -38.305342 36.442770 -0.000000 0.402862 0.420334 -0.169365 54.328458 145.041961 -0.000000 0.123850 0.209840 -0.411701
7.730000 -37.738817 41.897804 -0.000000 0.406313 0.414109 -0.169280 52.712327 142.419597 -0.000000 0.120704 0.215906 -0.411606
7.735000 -36.980478 46.645480 -0.000000 0.409406 0.407864 -0.169070 51.062647 139.506128 -0.000000 0.117893 0.221996 -0.411592
7.740000 -35.975211 50.775424 -0.000000 0.412281 0.401689 -0.169202 49.375050 136.322983 -0.000000 0.115339 0.228168 -0.411486
7.745000 -34.756309 54.370655 -0.000000 0.414355 0.395510 -0.168989 47.448672 133.028706 -0.000000 0.113154 0.234275 -0.411430
7.750000 -33.245021 57.623889 -0.000000 0.416107 0.389344 -0.168918 45.434046 129.684561 -0.000000 0.111192 0.240459 -0.411599
7.755000 -31.503079 60.641939 -0.000000 0.417512 0.383229 -0.168816 43.197837 126.461408 -0.000000 0.109609 0.246554 -0.411468
7.760000 -29.547584 63.557257 -0.000000 0.418486 0.377136 -0.168710 40.782481 123.469979 -0.000000 0.108247 0.252678 -0.411540
7.765000 -27.425467 66.478562 -0.000000 0.419138 0.371054 -0.168661 38.216694 120.835361 -0.000000 0.107100 0.258838 -0.411626
7.770000 -25.228011 69.487511 -0.000000 0.419443 0.364938 -0.168693 35.561219 118.693681 -0.000000 0.106173 0.264998 -0.411849
7.775000 -23.080723 72.648681 -0.000000 0.419516 0.358796 -0.168531 32.996282 117.161817 -0.000000 0.105511 0.271223 -0.411977
7.780000 -21.168658 76.009809 -0.000000 0.419228 0.352613 -0.168346 30.699597 116.336184 -0.000000 0.105076 0.277455 -0.412080
7.785000 -19.597477 79.642969 -0.000000 0.418804 0.346365 -0.168159 28.915254 116.231310 -0.000000 0.104825 0.283789 -0.412170
7.790000 -18.458129 83.601878 -0.000000 0.418198 0.339991 -0.167715 27.799190 116.810551 -0.000000 0.104778 0.290243 -0.412264
7.795000 -17.814292 87.893679 -0.000000 0.417518 0.333501 -0.167813 27.473404 117.968576 -0.000000 0.104914 0.296814 -0.412184
7.800000 -17.653023 92.460941 -0.000000 0.416598 0.326768 -0.167610 28.099437 119.500048 -0.000000 0.105225 0.303526 -0.412215
7.805000 -17.919891 97.182127 -0.000000 0.415677 0.319795 -0.167571 29.808811 121.109405 -0.000000 0.105724 0.310475 -0.412269
7.810000 -18.616101 101.891513 -0.000000 0.414605 0.312717 -0.167153 32.552473 122.477882 -0.000000 0.106443 0.317589 -0.412284
7.815000 -19.527422 106.455720 -0.000000 0.413338 0.305383 -0.167247 36.415529 123.237855 -0.000000 0.107342 0.324968 -0.412369
7.820000 -20.492020 110.737699 -0.000000 0.411868 0.297848 -0.166864 41.308919 123.089471 -0.000000 0.108501 0.332617 -0.412380
7.825000 -21.484999 114.605365 -0.000000 0.410312 0.290213 -0.166492 46.948625 121.851487 -0.000000 0.109846 0.340317 -0.412414
7.830000 -22.040715 118.070019 -0.000000 0.408374 0.282057 -0.166907 53.488520 119.236230 -0.000000 0.111519 0.348523 -0.412439
7.835000 -22.824898 120.997835 -0.000000 0.406264 0.274234 -0.166852 59.852760 115.566935 -0.000000 0.113422 0.356171 -0.412416
7.840000 -23.188733 123.554775 -0.000000 0.403904 0.266246 -0.166754 66.224119 110.741468 -0.000000 0.115646 0.364119 -0.412458
7.845000 -23.312976 125.798937 -0.000000 0.401197 0.258396 -0.166667 71.929773 105.193481 -0.000000 0.117752 0.372068 -0.411902
7.850000 -23.005134 127.892701 -0.000000 0.398252 0.250858 -0.166630 76.697583 99.278318 -0.000000 0.121018 0.379912 -0.412495
